<svg xmlns="http://www.w3.org/2000/svg" width="500" height="400" viewBox="0 0 500 400" fill="none">
  <g clip-path="url(#clip0_1_3)">
    <path d="M250 50C273.61 50 290 66.39 290 90C290 113.61 273.61 130 250 130C226.39 130 210 113.61 210 90C210 66.39 226.39 50 250 50Z" fill="#DBEAFE"/>
    <path d="M200 160H300C311.046 160 320 168.954 320 180V300C320 311.046 311.046 320 300 320H200C188.954 320 180 311.046 180 300V180C180 168.954 188.954 160 200 160Z" fill="#EFF6FF"/>
    <path d="M240 180H260C265.523 180 270 184.477 270 190V210C270 215.523 265.523 220 260 220H240C234.477 220 230 215.523 230 210V190C230 184.477 234.477 180 240 180Z" fill="#3b82f6"/>
    <path d="M220 240H280C285.523 240 290 244.477 290 250C290 255.523 285.523 260 280 260H220C214.477 260 210 255.523 210 250C210 244.477 214.477 240 220 240Z" fill="#93C5FD"/>
    <path d="M270 280H230C224.477 280 220 284.477 220 290C220 295.523 224.477 300 230 300H270C275.523 300 280 295.523 280 290C280 284.477 275.523 280 270 280Z" fill="#93C5FD"/>
    <path d="M360 210H330V250H360V210Z" fill="#3b82f6"/>
    <path d="M350 200L360 210H330L340 200H350Z" fill="#2563EB"/>
    <path d="M350 260L360 250H330L340 260H350Z" fill="#2563EB"/>
    <path d="M140 210H170V250H140V210Z" fill="#3b82f6"/>
    <path d="M150 200L140 210H170L160 200H150Z" fill="#2563EB"/>
    <path d="M150 260L140 250H170L160 260H150Z" fill="#2563EB"/>
    <path d="M100 250C111.046 250 120 241.046 120 230C120 218.954 111.046 210 100 210C88.9543 210 80 218.954 80 230C80 241.046 88.9543 250 100 250Z" fill="#3b82f6"/>
    <path d="M400 250C411.046 250 420 241.046 420 230C420 218.954 411.046 210 400 210C388.954 210 380 218.954 380 230C380 241.046 388.954 250 400 250Z" fill="#3b82f6"/>
    <path d="M390 120L410 170H370L390 120Z" fill="#3b82f6"/>
    <path d="M110 120L130 170H90L110 120Z" fill="#3b82f6"/>
    <path d="M250 340L280 380H220L250 340Z" fill="#3b82f6"/>
    <path opacity="0.2" d="M60 70C65.5228 70 70 65.5228 70 60C70 54.4772 65.5228 50 60 50C54.4772 50 50 54.4772 50 60C50 65.5228 54.4772 70 60 70Z" fill="#3b82f6"/>
    <path opacity="0.3" d="M440 80C448.837 80 456 72.8366 456 64C456 55.1634 448.837 48 440 48C431.163 48 424 55.1634 424 64C424 72.8366 431.163 80 440 80Z" fill="#3b82f6"/>
    <path opacity="0.5" d="M370 40C376.627 40 382 34.6274 382 28C382 21.3726 376.627 16 370 16C363.373 16 358 21.3726 358 28C358 34.6274 363.373 40 370 40Z" fill="#3b82f6"/>
    <path d="M310 110L260 90L270 70L320 90L310 110Z" fill="#3b82f6"/>
    <path d="M190 110L240 90L230 70L180 90L190 110Z" fill="#3b82f6"/>
  </g>
  <defs>
    <clipPath id="clip0_1_3">
      <rect width="500" height="400" fill="white"/>
    </clipPath>
  </defs>
</svg>
