<svg xmlns="http://www.w3.org/2000/svg" width="500" height="400" viewBox="0 0 500 400" fill="none">
  <g clip-path="url(#clip0_1_4)">
    <path d="M400 100H100C88.9543 100 80 108.954 80 120V320C80 331.046 88.9543 340 100 340H400C411.046 340 420 331.046 420 320V120C420 108.954 411.046 100 400 100Z" fill="#F0F4FF"/>
    <path d="M380 140H350C344.477 140 340 144.477 340 150V180C340 185.523 344.477 190 350 190H380C385.523 190 390 185.523 390 180V150C390 144.477 385.523 140 380 140Z" fill="#3b82f6"/>
    <path d="M300 140H270C264.477 140 260 144.477 260 150V180C260 185.523 264.477 190 270 190H300C305.523 190 310 185.523 310 180V150C310 144.477 305.523 140 300 140Z" fill="#3b82f6"/>
    <path d="M220 140H190C184.477 140 180 144.477 180 150V180C180 185.523 184.477 190 190 190H220C225.523 190 230 185.523 230 180V150C230 144.477 225.523 140 220 140Z" fill="#3b82f6"/>
    <path d="M140 140H110C104.477 140 100 144.477 100 150V180C100 185.523 104.477 190 110 190H140C145.523 190 150 185.523 150 180V150C150 144.477 145.523 140 140 140Z" fill="#3b82f6"/>
    <path d="M380 220H270C264.477 220 260 224.477 260 230V260C260 265.523 264.477 270 270 270H380C385.523 270 390 265.523 390 260V230C390 224.477 385.523 220 380 220Z" fill="#BFDBFE"/>
    <path d="M230 220H120C114.477 220 110 224.477 110 230V260C110 265.523 114.477 270 120 270H230C235.523 270 240 265.523 240 260V230C240 224.477 235.523 220 230 220Z" fill="#BFDBFE"/>
    <path d="M350 300H150C144.477 300 140 304.477 140 310C140 315.523 144.477 320 150 320H350C355.523 320 360 315.523 360 310C360 304.477 355.523 300 350 300Z" fill="#BFDBFE"/>
    <path d="M150 155L110 175V155H150Z" fill="#2563EB"/>
    <path d="M230 155L190 175V155H230Z" fill="#2563EB"/>
    <path d="M310 155L270 175V155H310Z" fill="#2563EB"/>
    <path d="M390 155L350 175V155H390Z" fill="#2563EB"/>
    <path d="M120 240H130V250H120V240Z" fill="#3b82f6"/>
    <path d="M150 240H220V250H150V240Z" fill="#3b82f6"/>
    <path d="M280 240H290V250H280V240Z" fill="#3b82f6"/>
    <path d="M310 240H380V250H310V240Z" fill="#3b82f6"/>
    <path d="M440 60C445.523 60 450 55.5228 450 50C450 44.4772 445.523 40 440 40C434.477 40 430 44.4772 430 50C430 55.5228 434.477 60 440 60Z" fill="#3b82f6"/>
    <path opacity="0.6" d="M60 80C68.8366 80 76 72.8366 76 64C76 55.1634 68.8366 48 60 48C51.1634 48 44 55.1634 44 64C44 72.8366 51.1634 80 60 80Z" fill="#3b82f6"/>
    <path opacity="0.3" d="M100 40C107.732 40 114 33.732 114 26C114 18.268 107.732 12 100 12C92.268 12 86 18.268 86 26C86 33.732 92.268 40 100 40Z" fill="#3b82f6"/>
    <path opacity="0.2" d="M400 80C407.732 80 414 73.732 414 66C414 58.268 407.732 52 400 52C392.268 52 386 58.268 386 66C386 73.732 392.268 80 400 80Z" fill="#3b82f6"/>
    <path opacity="0.5" d="M360 40C366.627 40 372 34.6274 372 28C372 21.3726 366.627 16 360 16C353.373 16 348 21.3726 348 28C348 34.6274 353.373 40 360 40Z" fill="#3b82f6"/>
  </g>
  <defs>
    <clipPath id="clip0_1_4">
      <rect width="500" height="400" fill="white"/>
    </clipPath>
  </defs>
</svg>
