<svg xmlns="http://www.w3.org/2000/svg" width="500" height="400" viewBox="0 0 500 400" fill="none">
  <g clip-path="url(#clip0_1_2)">
    <path d="M420 80H160C148.954 80 140 88.9543 140 100V340C140 351.046 148.954 360 160 360H420C431.046 360 440 351.046 440 340V100C440 88.9543 431.046 80 420 80Z" fill="#F0F4FF"/>
    <path d="M200 120H180C176.686 120 174 122.686 174 126V146C174 149.314 176.686 152 180 152H200C203.314 152 206 149.314 206 146V126C206 122.686 203.314 120 200 120Z" fill="#3b82f6"/>
    <path d="M230 126H370C373.314 126 376 128.686 376 132C376 135.314 373.314 138 370 138H230C226.686 138 224 135.314 224 132C224 128.686 226.686 126 230 126Z" fill="#D1D5DB"/>
    <path d="M350 146H230C226.686 146 224 143.314 224 140C224 136.686 226.686 134 230 134H350C353.314 134 356 136.686 356 140C356 143.314 353.314 146 350 146Z" fill="#D1D5DB"/>
    <path d="M180 172H380C383.314 172 386 174.686 386 178C386 181.314 383.314 184 380 184H180C176.686 184 174 181.314 174 178C174 174.686 176.686 172 180 172Z" fill="#E5E7EB"/>
    <path d="M180 200H380C383.314 200 386 202.686 386 206C386 209.314 383.314 212 380 212H180C176.686 212 174 209.314 174 206C174 202.686 176.686 200 180 200Z" fill="#E5E7EB"/>
    <path d="M180 228H380C383.314 228 386 230.686 386 234C386 237.314 383.314 240 380 240H180C176.686 240 174 237.314 174 234C174 230.686 176.686 228 180 228Z" fill="#E5E7EB"/>
    <path d="M180 256H380C383.314 256 386 258.686 386 262C386 265.314 383.314 268 380 268H180C176.686 268 174 265.314 174 262C174 258.686 176.686 256 180 256Z" fill="#E5E7EB"/>
    <path d="M180 284H280C283.314 284 286 286.686 286 290C286 293.314 283.314 296 280 296H180C176.686 296 174 293.314 174 290C174 286.686 176.686 284 180 284Z" fill="#E5E7EB"/>
    <path d="M380 320H334C330.686 320 328 322.686 328 326C328 329.314 330.686 332 334 332H380C383.314 332 386 329.314 386 326C386 322.686 383.314 320 380 320Z" fill="#3b82f6"/>
    <path d="M120 160H80C74.4772 160 70 164.477 70 170V290C70 295.523 74.4772 300 80 300H120C125.523 300 130 295.523 130 290V170C130 164.477 125.523 160 120 160Z" fill="#3b82f6"/>
    <path d="M100 170C94.4772 170 90 174.477 90 180V280C90 285.523 94.4772 290 100 290C105.523 290 110 285.523 110 280V180C110 174.477 105.523 170 100 170Z" fill="#2563EB"/>
    <path d="M100 180C94.4772 180 90 184.477 90 190C90 195.523 94.4772 200 100 200C105.523 200 110 195.523 110 190C110 184.477 105.523 180 100 180Z" fill="#1E40AF"/>
    <circle cx="100" cy="250" r="20" fill="#1E40AF"/>
    <path d="M30 220H50V260H30C24.4772 260 20 255.523 20 250V230C20 224.477 24.4772 220 30 220Z" fill="#1E40AF"/>
    <path d="M150 220H130V260H150C155.523 260 160 255.523 160 250V230C160 224.477 155.523 220 150 220Z" fill="#1E40AF"/>
    <path d="M90 200V180C90 174.477 94.4772 170 100 170C105.523 170 110 174.477 110 180V200H90Z" fill="#2563EB"/>
    <circle cx="100" cy="190" r="10" fill="#1E40AF"/>
    <circle cx="100" cy="230" r="10" fill="#3b82f6"/>
    <circle cx="100" cy="270" r="10" fill="#3b82f6"/>
    <path opacity="0.5" d="M370 40C376.075 40 381 34.6274 381 28C381 21.3726 376.075 16 370 16C363.925 16 359 21.3726 359 28C359 34.6274 363.925 40 370 40Z" fill="#3b82f6"/>
    <path opacity="0.3" d="M430 70C438.837 70 446 62.3888 446 53C446 43.6112 438.837 36 430 36C421.163 36 414 43.6112 414 53C414 62.3888 421.163 70 430 70Z" fill="#3b82f6"/>
    <path opacity="0.2" d="M70 80C75.5228 80 80 75.5228 80 70C80 64.4772 75.5228 60 70 60C64.4772 60 60 64.4772 60 70C60 75.5228 64.4772 80 70 80Z" fill="#3b82f6"/>
  </g>
  <defs>
    <clipPath id="clip0_1_2">
      <rect width="500" height="400" fill="white"/>
    </clipPath>
  </defs>
</svg>
